<svg width="1123" height="285" viewBox="0 0 1123 285" fill="none" xmlns="http://www.w3.org/2000/svg">
<mask id="path-1-outside-1_62_30" maskUnits="userSpaceOnUse" x="0" y="0" width="1123" height="285" fill="black">
<rect fill="white" width="1123" height="285"/>
<path d="M229.476 23.2213C234.101 23.2213 237.874 24.441 240.795 26.8802C243.717 29.0755 245.177 32.6124 245.177 37.4909V51.7604C245.177 56.6389 243.717 60.2977 240.795 62.737C237.874 64.9323 234.101 66.0299 229.476 66.0299H222.539L151.704 267.999C150.486 271.414 148.417 274.219 145.496 276.414C142.575 278.365 139.167 279.341 135.273 279.341H111.904C108.01 279.341 104.602 278.365 101.681 276.414C99.003 274.219 97.0557 271.414 95.8386 267.999L24.6381 66.0299H18.0657C13.1973 66.0299 9.30261 64.9323 6.38157 62.737C3.46052 60.2977 2 56.6389 2 51.7604V37.4909C2 32.6124 3.46052 29.0755 6.38157 26.8802C9.30261 24.441 13.1973 23.2213 18.0657 23.2213H84.1544C88.7794 23.2213 92.5524 24.441 95.4735 26.8802C98.3945 29.0755 99.855 32.6124 99.855 37.4909V51.7604C99.855 56.6389 98.3945 60.2977 95.4735 62.737C92.5524 64.9323 88.7794 66.0299 84.1544 66.0299H77.2169L127.605 213.482L177.993 66.0299H171.055C166.431 66.0299 162.657 64.9323 159.736 62.737C156.815 60.2977 155.355 56.6389 155.355 51.7604V37.4909C155.355 32.6124 156.815 29.0755 159.736 26.8802C162.657 24.441 166.431 23.2213 171.055 23.2213H229.476Z"/>
<path d="M306.496 67.1276C297.246 67.1276 289.457 64.0785 283.128 57.9805C277.042 51.6384 274 43.8329 274 34.5638C274 25.2947 277.042 17.6111 283.128 11.513C289.457 5.171 297.246 2 306.496 2C315.746 2 323.414 5.171 329.499 11.513C335.828 17.6111 338.993 25.2947 338.993 34.5638C338.993 43.8329 335.828 51.6384 329.499 57.9805C323.414 64.0785 315.746 67.1276 306.496 67.1276ZM280.937 279.341C276.312 279.341 272.539 278.243 269.618 276.048C266.697 273.609 265.236 269.95 265.236 265.072V250.802C265.236 245.924 266.697 242.387 269.618 240.191C272.539 237.752 276.312 236.533 280.937 236.533H287.874V139.207H280.937C276.312 139.207 272.539 138.109 269.618 135.914C266.697 133.475 265.236 129.816 265.236 124.937V110.668C265.236 101.155 270.47 96.3984 280.937 96.3984H321.467C326.335 96.3984 330.351 97.9839 333.516 101.155C336.68 104.326 338.263 108.351 338.263 113.229V236.533H344.835C349.703 236.533 353.598 237.752 356.519 240.191C359.44 242.387 360.901 245.924 360.901 250.802V265.072C360.901 269.95 359.44 273.609 356.519 276.048C353.598 278.243 349.703 279.341 344.835 279.341H280.937Z"/>
<path d="M475.911 165.917C499.523 172.747 516.075 180.552 525.569 189.333C535.062 198.115 539.809 209.945 539.809 224.824C539.809 236.045 536.523 246.046 529.95 254.827C523.621 263.608 514.615 270.56 502.931 275.682C491.247 280.561 477.858 283 462.766 283C439.641 283 421.141 279.219 407.266 271.658C393.635 263.852 386.819 253.607 386.819 240.923C386.819 232.874 389.375 226.41 394.487 221.531C399.599 216.409 406.293 213.848 414.569 213.848C422.359 213.848 428.809 216.531 433.921 221.897C439.276 227.263 441.954 233.849 441.954 241.655C441.954 243.606 441.832 245.07 441.589 246.046C446.457 248.729 453.151 250.07 461.671 250.07C470.434 250.07 477.25 248.607 482.118 245.68C486.987 242.509 489.421 238.24 489.421 232.874C489.421 227.263 487.595 222.995 483.944 220.068C480.293 217.141 472.868 214.092 461.671 210.921C443.658 205.798 429.418 200.432 418.951 194.822C408.727 189.211 401.303 182.869 396.678 175.796C392.296 168.722 390.105 159.941 390.105 149.452C390.105 138.231 393.27 128.352 399.599 119.815C406.171 111.278 415.178 104.692 426.618 100.057C438.303 95.1788 451.691 92.7396 466.783 92.7396C488.204 92.7396 505.365 96.3984 518.266 103.716C531.168 111.034 537.618 120.791 537.618 132.987C537.618 141.036 535.062 147.5 529.95 152.379C524.839 157.257 518.145 159.697 509.868 159.697C502.079 159.697 495.506 157.135 490.151 152.013C485.039 146.647 482.483 140.061 482.483 132.255C482.483 130.792 482.605 129.694 482.849 128.962C478.71 126.523 472.99 125.303 465.687 125.303C458.141 125.303 452.056 127.011 447.431 130.426C443.049 133.597 440.859 137.987 440.859 143.598C440.859 148.476 443.171 152.501 447.796 155.672C452.664 158.599 462.036 162.014 475.911 165.917Z"/>
<path d="M613.862 67.1276C604.612 67.1276 596.823 64.0785 590.494 57.9805C584.408 51.6384 581.365 43.8329 581.365 34.5638C581.365 25.2947 584.408 17.6111 590.494 11.513C596.823 5.171 604.612 2 613.862 2C623.112 2 630.78 5.171 636.865 11.513C643.194 17.6111 646.359 25.2947 646.359 34.5638C646.359 43.8329 643.194 51.6384 636.865 57.9805C630.78 64.0785 623.112 67.1276 613.862 67.1276ZM588.303 279.341C583.678 279.341 579.905 278.243 576.984 276.048C574.063 273.609 572.602 269.95 572.602 265.072V250.802C572.602 245.924 574.063 242.387 576.984 240.191C579.905 237.752 583.678 236.533 588.303 236.533H595.24V139.207H588.303C583.678 139.207 579.905 138.109 576.984 135.914C574.063 133.475 572.602 129.816 572.602 124.937V110.668C572.602 101.155 577.836 96.3984 588.303 96.3984H628.832C633.701 96.3984 637.717 97.9839 640.882 101.155C644.046 104.326 645.628 108.351 645.628 113.229V236.533H652.201C657.069 236.533 660.964 237.752 663.885 240.191C666.806 242.387 668.266 245.924 668.266 250.802V265.072C668.266 269.95 666.806 273.609 663.885 276.048C660.964 278.243 657.069 279.341 652.201 279.341H588.303Z"/>
<path d="M784.007 283C755.77 283 733.741 274.829 717.919 258.486C702.096 241.899 694.185 218.97 694.185 189.699C694.185 159.697 702.461 136.036 719.014 118.717C735.567 101.399 758.205 92.7396 786.928 92.7396C815.165 92.7396 837.195 101.033 853.017 117.62C868.839 133.963 876.75 156.648 876.75 185.674C876.75 215.677 868.474 239.46 851.921 257.022C835.369 274.341 812.731 283 784.007 283ZM784.372 240.923C811.635 240.923 825.267 222.629 825.267 186.04C825.267 151.891 812.366 134.816 786.563 134.816C773.418 134.816 763.316 139.573 756.257 149.086C749.198 158.355 745.668 171.771 745.668 189.333C745.668 206.164 748.955 218.97 755.527 227.751C762.099 236.533 771.714 240.923 784.372 240.923Z"/>
<path d="M1105.3 236.533C1115.77 236.533 1121 241.289 1121 250.802V265.072C1121 274.585 1115.77 279.341 1105.3 279.341H1043.96C1039.09 279.341 1035.19 278.243 1032.27 276.048C1029.35 273.609 1027.89 269.95 1027.89 265.072V250.802C1027.89 245.924 1029.35 242.387 1032.27 240.191C1035.19 237.752 1039.09 236.533 1043.96 236.533H1047.97V182.016C1047.97 164.453 1046.03 152.257 1042.13 145.427C1038.48 138.353 1031.79 134.816 1022.05 134.816C1014.99 134.816 1008.3 137.012 1001.97 141.402C995.882 145.793 990.892 151.769 986.997 159.331C983.346 166.648 981.52 174.454 981.52 182.747V236.533H985.902C990.527 236.533 994.3 237.752 997.221 240.191C1000.14 242.387 1001.6 245.924 1001.6 250.802V265.072C1001.6 269.95 1000.14 273.609 997.221 276.048C994.3 278.243 990.527 279.341 985.902 279.341H924.195C919.57 279.341 915.797 278.243 912.875 276.048C909.954 273.609 908.494 269.95 908.494 265.072V250.802C908.494 245.924 909.954 242.387 912.875 240.191C915.797 237.752 919.57 236.533 924.195 236.533H931.132V139.207H924.195C919.57 139.207 915.797 138.109 912.875 135.914C909.954 133.475 908.494 129.816 908.494 124.937V110.668C908.494 101.155 913.727 96.3984 924.195 96.3984H964.724C969.592 96.3984 973.609 97.9839 976.773 101.155C979.938 104.326 981.52 108.351 981.52 113.229V132.987C986.145 121.279 993.569 111.644 1003.79 104.082C1014.26 96.5204 1025.09 92.7396 1036.29 92.7396C1056.25 92.7396 1071.59 99.2035 1082.3 112.132C1093.25 125.059 1098.73 143.598 1098.73 167.746V236.533H1105.3Z"/>
</mask>
<path d="M229.476 23.2213C234.101 23.2213 237.874 24.441 240.795 26.8802C243.717 29.0755 245.177 32.6124 245.177 37.4909V51.7604C245.177 56.6389 243.717 60.2977 240.795 62.737C237.874 64.9323 234.101 66.0299 229.476 66.0299H222.539L151.704 267.999C150.486 271.414 148.417 274.219 145.496 276.414C142.575 278.365 139.167 279.341 135.273 279.341H111.904C108.01 279.341 104.602 278.365 101.681 276.414C99.003 274.219 97.0557 271.414 95.8386 267.999L24.6381 66.0299H18.0657C13.1973 66.0299 9.30261 64.9323 6.38157 62.737C3.46052 60.2977 2 56.6389 2 51.7604V37.4909C2 32.6124 3.46052 29.0755 6.38157 26.8802C9.30261 24.441 13.1973 23.2213 18.0657 23.2213H84.1544C88.7794 23.2213 92.5524 24.441 95.4735 26.8802C98.3945 29.0755 99.855 32.6124 99.855 37.4909V51.7604C99.855 56.6389 98.3945 60.2977 95.4735 62.737C92.5524 64.9323 88.7794 66.0299 84.1544 66.0299H77.2169L127.605 213.482L177.993 66.0299H171.055C166.431 66.0299 162.657 64.9323 159.736 62.737C156.815 60.2977 155.355 56.6389 155.355 51.7604V37.4909C155.355 32.6124 156.815 29.0755 159.736 26.8802C162.657 24.441 166.431 23.2213 171.055 23.2213H229.476Z" stroke="#E3E3E3" stroke-opacity="0.45" stroke-width="4" mask="url(#path-1-outside-1_62_30)"/>
<path d="M306.496 67.1276C297.246 67.1276 289.457 64.0785 283.128 57.9805C277.042 51.6384 274 43.8329 274 34.5638C274 25.2947 277.042 17.6111 283.128 11.513C289.457 5.171 297.246 2 306.496 2C315.746 2 323.414 5.171 329.499 11.513C335.828 17.6111 338.993 25.2947 338.993 34.5638C338.993 43.8329 335.828 51.6384 329.499 57.9805C323.414 64.0785 315.746 67.1276 306.496 67.1276ZM280.937 279.341C276.312 279.341 272.539 278.243 269.618 276.048C266.697 273.609 265.236 269.95 265.236 265.072V250.802C265.236 245.924 266.697 242.387 269.618 240.191C272.539 237.752 276.312 236.533 280.937 236.533H287.874V139.207H280.937C276.312 139.207 272.539 138.109 269.618 135.914C266.697 133.475 265.236 129.816 265.236 124.937V110.668C265.236 101.155 270.47 96.3984 280.937 96.3984H321.467C326.335 96.3984 330.351 97.9839 333.516 101.155C336.68 104.326 338.263 108.351 338.263 113.229V236.533H344.835C349.703 236.533 353.598 237.752 356.519 240.191C359.44 242.387 360.901 245.924 360.901 250.802V265.072C360.901 269.95 359.44 273.609 356.519 276.048C353.598 278.243 349.703 279.341 344.835 279.341H280.937Z" stroke="#E3E3E3" stroke-opacity="0.45" stroke-width="4" mask="url(#path-1-outside-1_62_30)"/>
<path d="M475.911 165.917C499.523 172.747 516.075 180.552 525.569 189.333C535.062 198.115 539.809 209.945 539.809 224.824C539.809 236.045 536.523 246.046 529.95 254.827C523.621 263.608 514.615 270.56 502.931 275.682C491.247 280.561 477.858 283 462.766 283C439.641 283 421.141 279.219 407.266 271.658C393.635 263.852 386.819 253.607 386.819 240.923C386.819 232.874 389.375 226.41 394.487 221.531C399.599 216.409 406.293 213.848 414.569 213.848C422.359 213.848 428.809 216.531 433.921 221.897C439.276 227.263 441.954 233.849 441.954 241.655C441.954 243.606 441.832 245.07 441.589 246.046C446.457 248.729 453.151 250.07 461.671 250.07C470.434 250.07 477.25 248.607 482.118 245.68C486.987 242.509 489.421 238.24 489.421 232.874C489.421 227.263 487.595 222.995 483.944 220.068C480.293 217.141 472.868 214.092 461.671 210.921C443.658 205.798 429.418 200.432 418.951 194.822C408.727 189.211 401.303 182.869 396.678 175.796C392.296 168.722 390.105 159.941 390.105 149.452C390.105 138.231 393.27 128.352 399.599 119.815C406.171 111.278 415.178 104.692 426.618 100.057C438.303 95.1788 451.691 92.7396 466.783 92.7396C488.204 92.7396 505.365 96.3984 518.266 103.716C531.168 111.034 537.618 120.791 537.618 132.987C537.618 141.036 535.062 147.5 529.95 152.379C524.839 157.257 518.145 159.697 509.868 159.697C502.079 159.697 495.506 157.135 490.151 152.013C485.039 146.647 482.483 140.061 482.483 132.255C482.483 130.792 482.605 129.694 482.849 128.962C478.71 126.523 472.99 125.303 465.687 125.303C458.141 125.303 452.056 127.011 447.431 130.426C443.049 133.597 440.859 137.987 440.859 143.598C440.859 148.476 443.171 152.501 447.796 155.672C452.664 158.599 462.036 162.014 475.911 165.917Z" stroke="#E3E3E3" stroke-opacity="0.45" stroke-width="4" mask="url(#path-1-outside-1_62_30)"/>
<path d="M613.862 67.1276C604.612 67.1276 596.823 64.0785 590.494 57.9805C584.408 51.6384 581.365 43.8329 581.365 34.5638C581.365 25.2947 584.408 17.6111 590.494 11.513C596.823 5.171 604.612 2 613.862 2C623.112 2 630.78 5.171 636.865 11.513C643.194 17.6111 646.359 25.2947 646.359 34.5638C646.359 43.8329 643.194 51.6384 636.865 57.9805C630.78 64.0785 623.112 67.1276 613.862 67.1276ZM588.303 279.341C583.678 279.341 579.905 278.243 576.984 276.048C574.063 273.609 572.602 269.95 572.602 265.072V250.802C572.602 245.924 574.063 242.387 576.984 240.191C579.905 237.752 583.678 236.533 588.303 236.533H595.24V139.207H588.303C583.678 139.207 579.905 138.109 576.984 135.914C574.063 133.475 572.602 129.816 572.602 124.937V110.668C572.602 101.155 577.836 96.3984 588.303 96.3984H628.832C633.701 96.3984 637.717 97.9839 640.882 101.155C644.046 104.326 645.628 108.351 645.628 113.229V236.533H652.201C657.069 236.533 660.964 237.752 663.885 240.191C666.806 242.387 668.266 245.924 668.266 250.802V265.072C668.266 269.95 666.806 273.609 663.885 276.048C660.964 278.243 657.069 279.341 652.201 279.341H588.303Z" stroke="#E3E3E3" stroke-opacity="0.45" stroke-width="4" mask="url(#path-1-outside-1_62_30)"/>
<path d="M784.007 283C755.77 283 733.741 274.829 717.919 258.486C702.096 241.899 694.185 218.97 694.185 189.699C694.185 159.697 702.461 136.036 719.014 118.717C735.567 101.399 758.205 92.7396 786.928 92.7396C815.165 92.7396 837.195 101.033 853.017 117.62C868.839 133.963 876.75 156.648 876.75 185.674C876.75 215.677 868.474 239.46 851.921 257.022C835.369 274.341 812.731 283 784.007 283ZM784.372 240.923C811.635 240.923 825.267 222.629 825.267 186.04C825.267 151.891 812.366 134.816 786.563 134.816C773.418 134.816 763.316 139.573 756.257 149.086C749.198 158.355 745.668 171.771 745.668 189.333C745.668 206.164 748.955 218.97 755.527 227.751C762.099 236.533 771.714 240.923 784.372 240.923Z" stroke="#E3E3E3" stroke-opacity="0.45" stroke-width="4" mask="url(#path-1-outside-1_62_30)"/>
<path d="M1105.3 236.533C1115.77 236.533 1121 241.289 1121 250.802V265.072C1121 274.585 1115.77 279.341 1105.3 279.341H1043.96C1039.09 279.341 1035.19 278.243 1032.27 276.048C1029.35 273.609 1027.89 269.95 1027.89 265.072V250.802C1027.89 245.924 1029.35 242.387 1032.27 240.191C1035.19 237.752 1039.09 236.533 1043.96 236.533H1047.97V182.016C1047.97 164.453 1046.03 152.257 1042.13 145.427C1038.48 138.353 1031.79 134.816 1022.05 134.816C1014.99 134.816 1008.3 137.012 1001.97 141.402C995.882 145.793 990.892 151.769 986.997 159.331C983.346 166.648 981.52 174.454 981.52 182.747V236.533H985.902C990.527 236.533 994.3 237.752 997.221 240.191C1000.14 242.387 1001.6 245.924 1001.6 250.802V265.072C1001.6 269.95 1000.14 273.609 997.221 276.048C994.3 278.243 990.527 279.341 985.902 279.341H924.195C919.57 279.341 915.797 278.243 912.875 276.048C909.954 273.609 908.494 269.95 908.494 265.072V250.802C908.494 245.924 909.954 242.387 912.875 240.191C915.797 237.752 919.57 236.533 924.195 236.533H931.132V139.207H924.195C919.57 139.207 915.797 138.109 912.875 135.914C909.954 133.475 908.494 129.816 908.494 124.937V110.668C908.494 101.155 913.727 96.3984 924.195 96.3984H964.724C969.592 96.3984 973.609 97.9839 976.773 101.155C979.938 104.326 981.52 108.351 981.52 113.229V132.987C986.145 121.279 993.569 111.644 1003.79 104.082C1014.26 96.5204 1025.09 92.7396 1036.29 92.7396C1056.25 92.7396 1071.59 99.2035 1082.3 112.132C1093.25 125.059 1098.73 143.598 1098.73 167.746V236.533H1105.3Z" stroke="#E3E3E3" stroke-opacity="0.45" stroke-width="4" mask="url(#path-1-outside-1_62_30)"/>
</svg>
